# Exported from Wings 3D 2.1.5
mtllib enginetree_C_lod_2.mtl
o cone5_sep695
#13 vertices, 18 faces
v 6.12810998 57.01322765 -5.6843419e-14
v 3.06405499 57.01322765 5.30709892
v -3.06405499 57.01322765 5.30709892
v -6.12810998 57.01322765 -5.6843419e-14
v -3.06405499 57.01322765 -5.30709892
v 3.06405499 57.01322765 -5.30709892
v 17.27572712 4.96137805 -5.6843419e-14
v 8.63786356 4.96137805 14.96121856
v -8.63786356 4.96137805 14.96121856
v -17.27572712 4.96137805 -5.6843419e-14
v -8.63786356 4.96137805 -14.96121856
v 8.63786356 4.96137805 -14.96121856
v 0.0000000e+0 61.50941976 5.6843419e-14
vt 0.53312580 0.25083553
vt 0.57832533 9.6817627e-2
vt 0.57832533 0.40485343
vt 0.62352487 0.25083553
vt 0.66872440 9.6817627e-2
vt 0.66872440 0.40485343
vt 0.71392393 0.25083553
vt 0.78805740 6.8446883e-2
vt 0.84578198 0.56413278
vt 0.84580403 0.56413566
vt 0.84581595 0.56413842
vt 0.84581671 0.56413739
vt 0.90635393 0.56395897
vt 0.95867862 6.7962915e-2
vn 0.83083129 0.55652436 -6.1273394e-15
vn 0.44750537 0.44604460 0.77510203
vn -0.41541565 0.55652436 0.71952101
vn -0.89501073 0.44604460 -4.9182175e-15
vn -0.41541565 0.55652436 -0.71952101
vn 0.44750537 0.44604460 -0.77510203
vn 1.7218597e-15 1.00000000 -2.5100349e-15
vn 0.97782685 0.20941502 -5.2431422e-15
vn 0.97782685 0.20941502 -5.2272056e-15
vn 0.97782685 0.20941502 -5.2431422e-15
vn 0.97782685 0.20941502 -5.2272056e-15
vn 0.48891342 0.20941502 0.84682289
vn 0.48891342 0.20941502 0.84682289
vn -0.48891342 0.20941502 0.84682289
vn -0.48891342 0.20941502 0.84682289
vn -0.48891342 0.20941502 0.84682289
vn -0.48891342 0.20941502 0.84682289
vn -0.97782685 0.20941502 -2.4542368e-15
vn -0.97782685 0.20941502 -2.4542368e-15
vn -0.48891342 0.20941502 -0.84682289
vn -0.48891342 0.20941502 -0.84682289
vn -0.48891342 0.20941502 -0.84682289
vn -0.48891342 0.20941502 -0.84682289
vn 0.48891342 0.20941502 -0.84682289
vn 0.48891342 0.20941502 -0.84682289
g cone5_sep695
usemtl C_Green1
s 2
f 1/9/1 7/8/10 6/13/6
f 1/7/1 13/4/7 2/5/2
f 2/10/2 7/14/11 1/13/1
f 2/13/2 9/8/15 8/14/12
f 2/5/2 13/4/7 3/2/3
f 3/12/3 9/8/16 2/13/2
f 3/2/3 13/4/7 4/1/4
f 4/13/4 9/8/17 3/11/3
f 4/13/4 11/8/21 10/14/18
f 4/1/4 13/4/7 5/3/5
f 5/10/5 11/8/22 4/13/4
f 5/3/5 13/4/7 6/6/6
f 6/13/6 7/8/8 12/14/24
f 6/13/6 11/8/23 5/12/5
f 6/6/6 13/4/7 1/7/1
f 8/8/13 7/14/9 2/10/2
f 10/14/19 9/8/14 4/13/4
f 12/14/25 11/8/20 6/13/6
