# Exported from Wings 3D 2.1.5
mtllib enginetree_B_lod_3.mtl
o cone5_sep649
#12 vertices, 12 faces
v -20.00485496 66.10091709 2.1316282e-14
v -20.00485496 -0.41827647 2.1316282e-14
v 20.00485496 -0.41827647 2.1316282e-14
v 20.00485496 66.10091709 2.1316282e-14
v 0.0000000e+0 -0.41827647 20.00485496
v 0.0000000e+0 -0.41827647 -20.00485496
v 0.0000000e+0 66.10091709 -20.00485496
v 0.0000000e+0 66.10091709 20.00485496
v -20.00485496 12.57079038 20.00485496
v -20.00485496 12.57079038 -20.00485496
v 20.00485496 12.57079038 -20.00485496
v 20.00485496 12.57079038 20.00485496
vt 0.49998048 5.8333680e-4
vt 0.49998048 0.50058334
vt 0.74898899 4.8317701e-2
vt 0.74898899 4.8317701e-2
vt 0.74898899 0.71750915
vt 0.74998048 5.8333680e-4
vt 0.74998048 0.50058334
vt 0.99898899 4.8317701e-2
vt 0.99898899 4.8317701e-2
vt 0.99898899 0.71750915
vn 0.0000000e+0 0.0000000e+0 1.00000000
vn 0.0000000e+0 0.0000000e+0 -1.00000000
vn 0.0000000e+0 0.0000000e+0 1.00000000
vn 0.0000000e+0 0.0000000e+0 -1.00000000
vn 0.0000000e+0 0.0000000e+0 1.00000000
vn 0.0000000e+0 0.0000000e+0 -1.00000000
vn 0.0000000e+0 0.0000000e+0 1.00000000
vn 0.0000000e+0 0.0000000e+0 -1.00000000
vn 0.0000000e+0 0.0000000e+0 1.00000000
vn 0.0000000e+0 0.0000000e+0 -1.00000000
vn 0.0000000e+0 0.0000000e+0 1.00000000
vn 0.0000000e+0 0.0000000e+0 -1.00000000
vn 1.00000000 0.0000000e+0 0.0000000e+0
vn -1.00000000 0.0000000e+0 0.0000000e+0
vn 1.00000000 0.0000000e+0 0.0000000e+0
vn -1.00000000 0.0000000e+0 0.0000000e+0
vn 1.00000000 0.0000000e+0 0.0000000e+0
vn -1.00000000 0.0000000e+0 0.0000000e+0
vn 1.00000000 0.0000000e+0 0.0000000e+0
vn -1.00000000 0.0000000e+0 0.0000000e+0
vn 1.00000000 0.0000000e+0 0.0000000e+0
vn -1.00000000 0.0000000e+0 0.0000000e+0
vn 1.00000000 0.0000000e+0 0.0000000e+0
vn -1.00000000 0.0000000e+0 0.0000000e+0
vn 0.0000000e+0 -1.00000000 0.0000000e+0
vn 0.0000000e+0 1.00000000 0.0000000e+0
vn 0.0000000e+0 -1.00000000 0.0000000e+0
vn 0.0000000e+0 1.00000000 0.0000000e+0
vn 0.0000000e+0 -1.00000000 0.0000000e+0
vn 0.0000000e+0 1.00000000 0.0000000e+0
vn 0.0000000e+0 -1.00000000 0.0000000e+0
vn 0.0000000e+0 1.00000000 0.0000000e+0
vn 0.0000000e+0 -1.00000000 0.0000000e+0
vn 0.0000000e+0 1.00000000 0.0000000e+0
vn 0.0000000e+0 -1.00000000 0.0000000e+0
vn 0.0000000e+0 1.00000000 0.0000000e+0
g cone5_sep649
usemtl B_Green1
s 1
f 2/4/5 3/9/9 1/5/3
f 4/10/11 1/5/1 3/9/7
f 6/8/17 7/10/21 5/3/15
f 8/5/23 5/3/13 7/10/19
f 9/1/28 11/7/34 10/2/30
f 11/7/32 9/1/26 12/6/36
s 2
f 1/5/4 3/9/10 2/4/6
f 3/9/8 1/5/2 4/10/12
f 5/3/16 7/10/22 6/8/18
f 7/10/20 5/3/14 8/5/24
f 10/2/29 11/7/33 9/1/27
f 12/6/35 9/1/25 11/7/31
