# Exported from Wings 3D 2.1.5
mtllib enginetree_A_lod_2.mtl
o cone5_sep431
#13 vertices, 18 faces
v 6.93225111 57.01322765 -7.1054274e-14
v 3.46612555 57.01322765 6.00350556
v -3.46612555 57.01322765 6.00350556
v -6.93225111 57.01322765 -7.1054274e-14
v -3.46612555 57.01322765 -6.00350556
v 3.46612555 57.01322765 -6.00350556
v 19.54267774 4.96137805 -7.1054274e-14
v 9.77133887 4.96137805 16.92445538
v -9.77133887 4.96137805 16.92445538
v -19.54267774 4.96137805 -7.1054274e-14
v -9.77133887 4.96137805 -16.92445538
v 9.77133887 4.96137805 -16.92445538
v 0.0000000e+0 61.50941976 4.2632564e-14
vt 0.53519568 0.25083553
vt 0.57936027 9.8762823e-2
vt 0.57936027 0.40290823
vt 0.62352487 0.25083553
vt 0.66768946 9.8762823e-2
vt 0.66768946 0.40290823
vt 0.71185406 0.25083553
vt 0.78805740 6.8446883e-2
vt 0.84582117 0.56412183
vt 0.84584369 0.56412471
vt 0.84585661 0.56412747
vt 0.84585663 0.56412645
vt 0.90635393 0.56395897
vt 0.95867862 6.7962915e-2
vn 0.80542155 0.59270239 -5.2505150e-15
vn 0.43867283 0.47985893 0.75980363
vn -0.40271078 0.59270239 0.69751553
vn -0.87734566 0.47985893 -4.1679954e-15
vn -0.40271078 0.59270239 -0.69751553
vn 0.43867283 0.47985893 -0.75980363
vn 5.7794369e-16 1.00000000 -1.8609787e-15
vn 0.97188517 0.23545535 -4.6466696e-15
vn 0.97188517 0.23545535 -4.6307563e-15
vn 0.97188517 0.23545535 -4.6466696e-15
vn 0.97188517 0.23545535 -4.6307563e-15
vn 0.48594258 0.23545535 0.84167724
vn 0.48594258 0.23545535 0.84167724
vn -0.48594258 0.23545535 0.84167724
vn -0.48594258 0.23545535 0.84167724
vn -0.48594258 0.23545535 0.84167724
vn -0.48594258 0.23545535 0.84167724
vn -0.97188517 0.23545535 -2.0687228e-15
vn -0.97188517 0.23545535 -2.0687228e-15
vn -0.48594258 0.23545535 -0.84167724
vn -0.48594258 0.23545535 -0.84167724
vn -0.48594258 0.23545535 -0.84167724
vn -0.48594258 0.23545535 -0.84167724
vn 0.48594258 0.23545535 -0.84167724
vn 0.48594258 0.23545535 -0.84167724
g cone5_sep431
usemtl A_Green1
s 2
f 1/9/1 7/8/10 6/13/6
f 1/7/1 13/4/7 2/5/2
f 2/10/2 7/14/11 1/13/1
f 2/13/2 9/8/15 8/14/12
f 2/5/2 13/4/7 3/2/3
f 3/12/3 9/8/16 2/13/2
f 3/2/3 13/4/7 4/1/4
f 4/13/4 9/8/17 3/11/3
f 4/13/4 11/8/21 10/14/18
f 4/1/4 13/4/7 5/3/5
f 5/10/5 11/8/22 4/13/4
f 5/3/5 13/4/7 6/6/6
f 6/13/6 7/8/8 12/14/24
f 6/13/6 11/8/23 5/12/5
f 6/6/6 13/4/7 1/7/1
f 8/8/13 7/14/9 2/10/2
f 10/14/19 9/8/14 4/13/4
f 12/14/25 11/8/20 6/13/6
